<?xml version="1.0" encoding="UTF-8" standalone="no"?>
<svg
   xmlns:dc="http://purl.org/dc/elements/1.1/"
   xmlns:cc="http://creativecommons.org/ns#"
   xmlns:rdf="http://www.w3.org/1999/02/22-rdf-syntax-ns#"
   xmlns:svg="http://www.w3.org/2000/svg"
   xmlns="http://www.w3.org/2000/svg"
   xmlns:sodipodi="http://sodipodi.sourceforge.net/DTD/sodipodi-0.dtd"
   xmlns:inkscape="http://www.inkscape.org/namespaces/inkscape"
   version="1.1"
   id="svg2"
   xml:space="preserve"
   width="400"
   height="400"
   viewBox="0 0 745.21725 512.11198"
   sodipodi:docname="username-pass-pdv.svg"
   inkscape:version="1.0.2 (e86c870879, 2021-01-15)"><metadata
     id="metadata8"><rdf:RDF><cc:Work
         rdf:about=""><dc:format>image/svg+xml</dc:format><dc:type
           rdf:resource="http://purl.org/dc/dcmitype/StillImage" /><dc:title></dc:title></cc:Work></rdf:RDF></metadata><defs
     id="defs6"><clipPath
       clipPathUnits="userSpaceOnUse"
       id="clipPath20"><path
         d="M 0,0 H 8000 V 8000 H 0 Z"
         id="path18" /></clipPath><clipPath
       clipPathUnits="userSpaceOnUse"
       id="clipPath26"><path
         d="M 8000.01,-0.0078125 H 0 V 8000 H 8000.01 V -0.0078125 M 1397.6,2145.16 c 13.52,-65.81 71.76,-115.31 141.49,-115.31 h 5073.12 c 79.83,0 144.54,64.71 144.54,144.54 v 3452.4 c 0,56.09 -31.95,104.67 -78.64,128.61 -13.5,65.77 -71.76,115.29 -141.59,115.29 H 1463.49 c -79.83,0 -144.54,-64.71 -144.54,-144.45 v -473.97 c -55.43,-25.51 -71.81,-77.33 -75.06,-103.38 -0.45,3.6 -0.63,6.75 -0.63,9.27 v -18.54 -791.46 -18.54 c 0,2.43 0.18,5.58 0.63,9.27 3.25,-26.05 19.63,-77.87 75.06,-103.37 v -143.26 c -54.85,-25.24 -71.44,-76.26 -74.88,-102.57 -0.54,4.05 -0.81,7.47 -0.81,10.17 v -20.25 -789.75 -20.25 c 0,2.7 0.27,6.12 0.81,10.08 3.44,-26.31 20.03,-77.32 74.88,-102.57 v -803.37 c 0,-56.03 31.95,-104.64 78.65,-128.59"
         id="path24" /></clipPath><radialGradient
       fx="0"
       fy="0"
       cx="0"
       cy="0"
       r="1"
       gradientUnits="userSpaceOnUse"
       gradientTransform="matrix(567.276,0,0,-567.276,400,400)"
       spreadMethod="pad"
       id="radialGradient32"><stop
         style="stop-opacity:1;stop-color:#e0dedc"
         offset="0"
         id="stop28" /><stop
         style="stop-opacity:1;stop-color:#6d6a6e"
         offset="1"
         id="stop30" /></radialGradient><clipPath
       clipPathUnits="userSpaceOnUse"
       id="clipPath42"><path
         d="M 6612.21,2029.85 H 1539.09 c -69.73,0 -127.97,49.5 -141.49,115.31 19.76,-10.14 42.16,-15.86 65.89,-15.86 h 5073.03 c 79.83,0 144.54,64.71 144.54,144.45 v 3178.98 273.51 0 c 0,9.99 -1.02,19.74 -2.95,29.16 46.69,-23.94 78.64,-72.52 78.64,-128.61 v -3452.4 c 0,-79.83 -64.71,-144.54 -144.54,-144.54 M 1318.95,3077.12 c -54.85,25.25 -71.44,76.26 -74.88,102.57 -0.54,-3.96 -0.81,-7.38 -0.81,-10.08 v 20.25 789.75 20.25 c 0,-2.7 0.27,-6.12 0.81,-10.17 3.44,26.31 20.03,77.33 74.88,102.57 V 3077.12 m 0,1158.4 c -55.43,25.5 -71.81,77.32 -75.06,103.37 -0.45,-3.69 -0.63,-6.84 -0.63,-9.27 v 18.54 791.46 18.54 c 0,-2.52 0.18,-5.67 0.63,-9.27 3.25,26.05 19.63,77.87 75.06,103.38 V 4235.52"
         id="path40" /></clipPath><radialGradient
       fx="0"
       fy="0"
       cx="0"
       cy="0"
       r="1"
       gradientUnits="userSpaceOnUse"
       gradientTransform="matrix(567.276,0,0,-567.276,400,400)"
       spreadMethod="pad"
       id="radialGradient48"><stop
         style="stop-opacity:1;stop-color:#b3b4b4"
         offset="0"
         id="stop44" /><stop
         style="stop-opacity:1;stop-color:#57575a"
         offset="1"
         id="stop46" /></radialGradient></defs><sodipodi:namedview
     pagecolor="#ffffff"
     bordercolor="#666666"
     borderopacity="1"
     objecttolerance="10"
     gridtolerance="10"
     guidetolerance="10"
     inkscape:pageopacity="0"
     inkscape:pageshadow="2"
     inkscape:window-width="1920"
     inkscape:window-height="1043"
     id="namedview4"
     showgrid="false"
     inkscape:pagecheckerboard="true"
     inkscape:zoom="0.79781244"
     inkscape:cx="257.14082"
     inkscape:cy="19.539355"
     inkscape:window-x="0"
     inkscape:window-y="0"
     inkscape:window-maximized="1"
     inkscape:current-layer="g10"
     fit-margin-top="0"
     fit-margin-left="0"
     fit-margin-right="0"
     fit-margin-bottom="0" /><g
     id="g10"
     inkscape:groupmode="layer"
     inkscape:label="ink_ext_XXXXXX"
     transform="matrix(1.3333333,0,0,-1.3333333,-155.68266,782.75865)"><path
       d="M 661.221,202.985 H 153.909 c -6.973,0 -12.797,4.95 -14.149,11.531 1.976,-1.014 4.216,-1.586 6.589,-1.586 h 507.303 c 7.983,0 14.454,6.471 14.454,14.445 v 317.898 27.351 0 c 0,0.999 -0.102,1.974 -0.295,2.916 4.669,-2.394 7.864,-7.252 7.864,-12.861 v -345.24 c 0,-7.983 -6.471,-14.454 -14.454,-14.454 M 131.895,307.712 c -5.485,2.525 -7.144,7.626 -7.488,10.257 -0.054,-0.396 -0.081,-0.738 -0.081,-1.008 v 2.025 78.975 2.025 c 0,-0.27 0.027,-0.612 0.081,-1.017 0.344,2.631 2.003,7.733 7.488,10.257 V 307.712 m 0,115.84 c -5.543,2.55 -7.181,7.732 -7.506,10.337 -0.045,-0.369 -0.063,-0.684 -0.063,-0.927 v 1.854 79.146 1.854 c 0,-0.252 0.018,-0.567 0.063,-0.927 0.325,2.605 1.963,7.787 7.506,10.338 V 423.552"
       style="fill:url(#radialGradient48);fill-opacity:1;fill-rule:nonzero;stroke:none;stroke-width:0.1"
       id="path50" /><path
       d="m 137.333,536.658 h -5.437 c -12.986,0 -15.134,-10.094 -15.134,-12.758 v -81 c 0,2.664 2.148,12.758 15.134,12.758 h 5.437 v 81"
       style="fill:#b77d20;fill-opacity:1;fill-rule:nonzero;stroke:none;stroke-width:0.1"
       id="path52" /><path
       d="m 137.333,420.658 h -5.437 c -12.986,0 -15.134,-10.094 -15.134,-12.758 v -81 c 0,2.664 2.148,12.758 15.134,12.758 h 5.437 v 81"
       style="fill:#b77d20;fill-opacity:1;fill-rule:nonzero;stroke:none;stroke-width:0.1"
       id="path54" /><path
       d="m 668.106,227.375 c 0,-7.974 -6.471,-14.445 -14.454,-14.445 H 146.349 c -7.983,0 -14.454,6.471 -14.454,14.445 v 345.249 c 0,7.974 6.471,14.445 14.454,14.445 h 507.303 c 7.983,0 14.454,-6.471 14.454,-14.445 V 227.375"
       style="fill:#ffffff;fill-opacity:1;fill-rule:nonzero;stroke:none;stroke-width:0.1"
       id="path56" /><path
       d="M 668.106,545.273 H 131.895 v 27.351 c 0,7.974 6.471,14.445 14.454,14.445 h 507.303 c 7.983,0 14.454,-6.471 14.454,-14.445 v -27.351"
       style="fill:#f9a72b;fill-opacity:1;fill-rule:nonzero;stroke:none;stroke-width:0.1"
       id="path58" /><path
       d="m 653.832,567.26 c 0,-8.775 -7.119,-15.894 -15.894,-15.894 -8.784,0 -15.903,7.119 -15.903,15.894 0,8.784 7.119,15.903 15.903,15.903 8.775,0 15.894,-7.119 15.894,-15.903"
       style="fill:#ffffff;fill-opacity:1;fill-rule:nonzero;stroke:none;stroke-width:0.1"
       id="path60" /><path
       d="m 647.802,574.568 -2.556,2.556 -7.308,-7.308 -7.308,7.308 -2.556,-2.556 7.308,-7.308 -7.308,-7.308 2.556,-2.556 7.308,7.308 7.308,-7.308 2.556,2.556 -7.308,7.308 7.308,7.308"
       style="fill:#f9a72b;fill-opacity:1;fill-rule:nonzero;stroke:none;stroke-width:0.1"
       id="path62" /><path
       d="m 628.938,559.088 -0.864,0.864 7.308,7.308 0.864,-0.864 -7.308,-7.308 m 9.864,9.864 -0.864,0.864 7.308,7.308 0.864,-0.864 -7.308,-7.308 m -9.864,4.752 -0.864,0.864 2.556,2.556 0.864,-0.864 -2.556,-2.556"
       style="fill:#b47c21;fill-opacity:1;fill-rule:nonzero;stroke:none;stroke-width:0.1"
       id="path64" /><path
       d="M 648.226,229.889 H 449.778 v 55 h 198.448 v -55"
       style="fill:#bcbcbd;fill-opacity:1;fill-rule:nonzero;stroke:none;stroke-width:0.1"
       id="path66" /><path
       d="M 646.114,232 H 447.667 v 55 h 198.447 v -55"
       style="fill:#f9a72b;fill-opacity:1;fill-rule:nonzero;stroke:none;stroke-width:0.1"
       id="path68" /><path
       d="m 566.699,262.322 c 0,1.558 -0.027,2.865 -0.111,4.033 h 3.004 l 0.167,-2.03 h 0.083 c 0.584,1.057 2.057,2.336 4.31,2.336 2.364,0 4.811,-1.529 4.811,-5.812 v -8.037 h -3.42 v 7.647 c 0,1.946 -0.724,3.421 -2.587,3.421 -1.362,0 -2.309,-0.974 -2.67,-2.002 -0.111,-0.306 -0.139,-0.724 -0.139,-1.112 v -7.954 h -3.448 z m -7.118,-9.51 v 13.543 h 3.449 v -13.543 z m 3.644,17.325 c 0,-1.029 -0.75,-1.835 -1.948,-1.835 -1.139,0 -1.89,0.806 -1.89,1.835 0,1.057 0.778,1.863 1.919,1.863 1.169,0 1.891,-0.806 1.919,-1.863 z m -10.621,-9.204 c 0,0.305 -0.028,0.639 -0.112,0.917 -0.36,1.252 -1.334,2.197 -2.78,2.197 -1.919,0 -3.337,-1.669 -3.337,-4.422 0,-2.309 1.168,-4.172 3.31,-4.172 1.278,0 2.391,0.835 2.781,2.059 0.083,0.361 0.138,0.834 0.138,1.223 z m 3.532,5.422 c -0.056,-0.918 -0.111,-2.03 -0.111,-3.893 v -7.676 c 0,-2.836 -0.585,-4.866 -2.003,-6.145 -1.418,-1.252 -3.365,-1.641 -5.228,-1.641 -1.725,0 -3.56,0.36 -4.727,1.084 l 0.75,2.586 c 0.863,-0.5 2.309,-1.028 3.95,-1.028 2.224,0 3.892,1.168 3.892,4.087 v 1.168 h -0.055 c -0.778,-1.196 -2.168,-2.001 -3.949,-2.001 -3.365,0 -5.757,2.781 -5.757,6.618 0,4.449 2.893,7.147 6.147,7.147 2.058,0 3.281,-1.002 3.921,-2.114 h 0.055 l 0.139,1.808 z m -25.387,-6.786 c 0,-2.614 1.28,-4.589 3.365,-4.589 1.948,0 3.31,1.919 3.31,4.645 0,2.114 -0.946,4.533 -3.282,4.533 -2.419,0 -3.393,-2.336 -3.393,-4.589 z m 10.206,0.14 c 0,-4.979 -3.504,-7.203 -6.952,-7.203 -3.837,0 -6.785,2.641 -6.785,6.98 0,4.45 2.92,7.175 7.008,7.175 4.032,0 6.729,-2.837 6.729,-6.952 z m -26.138,11.846 h 3.42 v -15.878 h 7.704 v -2.865 h -11.124 v 18.743"
       style="fill:#ffffff;fill-opacity:1;fill-rule:nonzero;stroke:none;stroke-width:0.1"
       id="path70" /><path
       d="m 561.313,313.854 v 81 H 134.208 c -0.812,0 -1.582,0.041 -2.312,0.115 v -81 c 0.73,-0.074 1.5,-0.115 2.312,-0.115 h 427.105"
       style="fill:#bcbcbd;fill-opacity:1;fill-rule:nonzero;stroke:none;stroke-width:0.1"
       id="path72" /><path
       d="m 131.896,510.802 v -81 c 0.73,-0.074 1.5,-0.114 2.312,-0.114 h 427.105 v 81 H 134.208 c -0.812,0 -1.582,0.04 -2.312,0.114"
       style="fill:#bcbcbd;fill-opacity:1;fill-rule:nonzero;stroke:none;stroke-width:0.1"
       id="path74" /><path
       d="m 131.896,513 c -12.986,0 -15.134,10.094 -15.134,12.758 v -81 c 0,-2.664 2.148,-12.758 15.134,-12.758 H 559 v 81 H 131.896"
       style="fill:#f9a72b;fill-opacity:1;fill-rule:nonzero;stroke:none;stroke-width:0.1"
       id="path76" /><path
       d="m 131.896,397.167 c -12.986,0 -15.134,10.094 -15.134,12.758 v -81 c 0,-2.664 2.148,-12.758 15.134,-12.758 H 559 v 81 H 131.896"
       style="fill:#f9a72b;fill-opacity:1;fill-rule:nonzero;stroke:none;stroke-width:0.1"
       id="path78" /><path
       d="m 541.833,447 h -267.5 v 49.167 h 267.5 V 447"
       style="fill:#ffffff;fill-opacity:1;fill-rule:nonzero;stroke:none;stroke-width:0.1"
       id="path80" /><path
       d="m 541.833,332 h -267.5 v 49.167 h 267.5 V 332"
       style="fill:#ffffff;fill-opacity:1;fill-rule:nonzero;stroke:none;stroke-width:0.1"
       id="path82" /><path
       d="m 427.416,335.197 h -2.389 v 40.118 h 2.389 v -40.118"
       style="fill:#3b3a3d;fill-opacity:1;fill-rule:nonzero;stroke:none;stroke-width:0.1"
       id="path84" /><path
       d="m 420.311,366.434 -2.515,-3.108 v -0.049 l 3.847,0.641 v -2.121 l -3.872,0.592 v -0.074 l 2.54,-3.008 -1.899,-1.085 -1.455,3.649 -0.049,-0.024 -1.504,-3.65 -1.775,1.11 2.49,3.033 v 0.074 l -3.773,-0.617 v 2.121 l 3.723,-0.641 0.025,0.074 -2.465,3.057 1.873,1.085 1.431,-3.624 h 0.074 l 1.43,3.624 z m -10.776,0 -2.514,-3.108 v -0.049 l 3.846,0.641 v -2.121 l -3.871,0.592 v -0.074 l 2.539,-3.008 -1.898,-1.085 -1.455,3.649 -0.049,-0.024 -1.504,-3.65 -1.775,1.11 2.49,3.033 v 0.074 l -3.774,-0.617 v 2.121 l 3.724,-0.641 0.024,0.074 -2.464,3.057 1.873,1.085 1.43,-3.624 h 0.074 l 1.43,3.624 z m -10.774,0 -2.515,-3.108 v -0.049 l 3.846,0.641 v -2.121 l -3.871,0.592 v -0.074 l 2.54,-3.008 -1.899,-1.085 -1.454,3.649 -0.05,-0.024 -1.504,-3.65 -1.775,1.11 2.49,3.033 v 0.074 l -3.773,-0.617 v 2.121 l 3.724,-0.641 0.024,0.074 -2.465,3.057 1.874,1.085 1.43,-3.624 h 0.074 l 1.43,3.624 z m -10.775,0 -2.516,-3.108 v -0.049 l 3.847,0.641 v -2.121 l -3.871,0.592 v -0.074 l 2.54,-3.008 -1.899,-1.085 -1.455,3.649 -0.049,-0.024 -1.504,-3.65 -1.776,1.11 2.49,3.033 v 0.074 l -3.772,-0.617 v 2.121 l 3.724,-0.641 0.024,0.074 -2.466,3.057 1.874,1.085 1.43,-3.624 h 0.074 l 1.431,3.624 z m -10.777,0 -2.514,-3.108 v -0.049 l 3.847,0.641 v -2.121 l -3.872,0.592 v -0.074 l 2.539,-3.008 -1.898,-1.085 -1.455,3.649 -0.049,-0.024 -1.504,-3.65 -1.776,1.11 2.491,3.033 v 0.074 l -3.773,-0.617 v 2.121 l 3.723,-0.641 0.025,0.074 -2.466,3.057 1.874,1.085 1.431,-3.624 h 0.074 l 1.429,3.624 z m -10.775,0 -2.515,-3.108 v -0.049 l 3.847,0.641 v -2.121 l -3.871,0.592 v -0.074 l 2.539,-3.008 -1.898,-1.085 -1.455,3.649 -0.049,-0.024 -1.505,-3.65 -1.775,1.11 2.491,3.033 v 0.074 l -3.773,-0.617 v 2.121 l 3.723,-0.641 0.025,0.074 -2.466,3.057 1.874,1.085 1.43,-3.624 h 0.074 l 1.43,3.624 z m -10.775,0 -2.515,-3.108 v -0.049 l 3.847,0.641 v -2.121 l -3.872,0.592 v -0.074 l 2.54,-3.008 -1.899,-1.085 -1.455,3.649 -0.049,-0.024 -1.504,-3.65 -1.775,1.11 2.49,3.033 v 0.074 l -3.773,-0.617 v 2.121 l 3.723,-0.641 0.025,0.074 -2.465,3.057 1.874,1.085 1.43,-3.624 h 0.074 l 1.43,3.624 z m -10.776,0 -2.514,-3.108 v -0.049 l 3.846,0.641 v -2.121 l -3.871,0.592 v -0.074 l 2.539,-3.008 -1.898,-1.085 -1.455,3.649 -0.049,-0.024 -1.504,-3.65 -1.776,1.11 2.491,3.033 v 0.074 l -3.773,-0.617 v 2.121 l 3.723,-0.641 0.025,0.074 -2.466,3.057 1.874,1.085 1.43,-3.624 h 0.075 l 1.429,3.624 z m -10.775,0 -2.515,-3.108 v -0.049 l 3.847,0.641 v -2.121 l -3.872,0.592 v -0.074 l 2.54,-3.008 -1.899,-1.085 -1.455,3.649 -0.048,-0.024 -1.505,-3.65 -1.775,1.11 2.491,3.033 v 0.074 l -3.773,-0.617 v 2.121 l 3.723,-0.641 0.025,0.074 -2.466,3.057 1.874,1.085 1.43,-3.624 h 0.074 l 1.43,3.624 z m -10.775,0 -2.515,-3.108 v -0.049 l 3.847,0.641 v -2.121 l -3.872,0.592 v -0.074 l 2.54,-3.008 -1.899,-1.085 -1.455,3.649 -0.049,-0.024 -1.504,-3.65 -1.776,1.11 2.491,3.033 v 0.074 l -3.773,-0.617 v 2.121 l 3.723,-0.641 0.025,0.074 -2.466,3.057 1.874,1.085 1.431,-3.624 h 0.074 l 1.429,3.624 z m -10.776,0 -2.515,-3.108 v -0.049 l 3.847,0.641 v -2.121 l -3.871,0.592 v -0.074 l 2.539,-3.008 -1.898,-1.085 -1.455,3.649 -0.049,-0.024 -1.505,-3.65 -1.775,1.11 2.491,3.033 v 0.074 l -3.773,-0.617 v 2.121 l 3.723,-0.641 0.025,0.074 -2.466,3.057 1.874,1.085 1.43,-3.624 h 0.074 l 1.43,3.624 z m -10.775,0 -2.515,-3.108 v -0.049 l 3.847,0.641 v -2.121 l -3.872,0.592 v -0.074 l 2.54,-3.008 -1.899,-1.085 -1.455,3.649 -0.049,-0.024 -1.504,-3.65 -1.775,1.11 2.49,3.033 v 0.074 l -3.773,-0.617 v 2.121 l 3.724,-0.641 0.024,0.074 -2.465,3.057 1.874,1.085 1.43,-3.624 h 0.074 l 1.43,3.624 z m -10.776,0 -2.514,-3.108 v -0.049 l 3.846,0.641 v -2.121 l -3.871,0.592 v -0.074 l 2.539,-3.008 -1.898,-1.085 -1.455,3.649 -0.049,-0.024 -1.504,-3.65 -1.776,1.11 2.491,3.033 v 0.074 l -3.773,-0.617 v 2.121 l 3.723,-0.641 0.025,0.074 -2.466,3.057 1.874,1.085 1.43,-3.624 h 0.075 l 1.429,3.624 1.874,-1.059"
       style="fill:#3b3a3d;fill-opacity:1;fill-rule:nonzero;stroke:none;stroke-width:0.1"
       id="path86" /><text
       xml:space="preserve"
       style="font-style:normal;font-weight:normal;font-size:30px;line-height:1.25;font-family:sans-serif;fill:#000000;fill-opacity:1;stroke:none;stroke-width:0.75"
       x="301.78757"
       y="-456.99921"
       id="text271"
       transform="scale(1,-1)"><tspan
         sodipodi:role="line"
         id="tspan269"
         x="301.78757"
         y="-456.99921"
         style="stroke-width:0.75" /></text></g><g
     inkscape:groupmode="layer"
     id="layer1"
     inkscape:label="text"
     style="display:inline"
     transform="translate(-155.68266,-283.90805)"><text
       xml:space="preserve"
       style="font-style:normal;font-weight:normal;font-size:40px;line-height:1.25;font-family:sans-serif;fill:#000000;fill-opacity:1;stroke:none"
       x="378.89627"
       y="449.57925"
       id="text280"><tspan
         sodipodi:role="line"
         id="tspan278"
         x="378.89627"
         y="449.57925"
         style="font-style:normal;font-variant:normal;font-weight:bold;font-stretch:normal;font-family:sans-serif;-inkscape-font-specification:'sans-serif Bold'">passphraser</tspan></text></g></svg>
